<?xml version="1.0" standalone="no"?><!DOCTYPE svg PUBLIC "-//W3C//DTD SVG 1.1//EN" "http://www.w3.org/Graphics/SVG/1.1/DTD/svg11.dtd"><svg t="1500868274352" class="icon" style="" viewBox="0 0 1024 1024" version="1.1" xmlns="http://www.w3.org/2000/svg" p-id="2496" xmlns:xlink="http://www.w3.org/1999/xlink" width="100" height="100"><defs><style type="text/css"></style></defs><path d="M0 0v1024h107.6c0-204.4 140.8-342.1 327.2-371.8 18.8-3.1 38.1-5 57.7-5.7-37-3.1-71.6-14.9-101.6-33.2-41.2-25.3-74-62.9-92.9-107.8-11.8-27.8-18.4-58.5-18.4-90.6 0-5.1 0.2-10.2 0.5-15.3C288 278.4 388.9 182.5 512 182.5c71.9 0 136.2 32.7 178.9 83.9 33.4 40.2 53.6 92 53.6 148.4 0 76.2-36.6 143.7-93.2 186.1-1.2 0.8-2.3 1.8-3.6 2.7-33.3 23.9-73 39.3-116.2 42.9 31.3 1.3 61.8 5.3 90.8 12.2 5 1.2 10 2.4 15 3.8 145 39.5 253.9 148.4 275.3 304.4 2.4 18.4 3.8 37.5 3.8 57.1H1024V0H0z" fill="#CAD8E5" p-id="2497"></path></svg>