<?xml version="1.0" standalone="no"?><!DOCTYPE svg PUBLIC "-//W3C//DTD SVG 1.1//EN" "http://www.w3.org/Graphics/SVG/1.1/DTD/svg11.dtd"><svg t="1500868423800" class="icon" style="" viewBox="0 0 1024 1024" version="1.1" xmlns="http://www.w3.org/2000/svg" p-id="2620" xmlns:xlink="http://www.w3.org/1999/xlink" width="40" height="40"><defs><style type="text/css"></style></defs><path d="M0 512c0 282.453333 229.546667 512 512 512s512-229.546667 512-512S794.453333 0 512 0 0 229.546667 0 512z" fill="#F9FAFC" p-id="2621"></path><path d="M887.466667 857.6c-13.653333-71.68-139.946667-140.8-253.44-178.346667-5.12-1.706667-40.106667-17.066667-18.773334-82.773333 56.32-58.026667 98.986667-151.04 98.986667-242.346667 0-140.8-93.866667-215.04-203.093333-215.04S308.906667 213.333333 308.906667 354.133333c0 92.16 42.666667 185.173333 98.986666 243.2 22.186667 58.026667-17.066667 79.36-25.6 81.92-106.666667 39.253333-232.106667 108.373333-245.76 178.346667C52.053333 767.146667 0 645.12 0 511.146667 0 228.693333 229.546667 0 512 0s512 228.693333 512 511.146667c0 133.973333-52.053333 256-136.533333 346.453333" fill="#E5E9F2" p-id="2622"></path></svg>